<?xml version="1.0" encoding="UTF-8"?>
<svg id="Layer_2" data-name="Layer 2" xmlns="http://www.w3.org/2000/svg" viewBox="0 0 789.72 140.35">
  <defs>
    <style>
      .cls-1 {
        stroke-width: 0px;
      }
    </style>
  </defs>
  <g id="Layer_1-2" data-name="Layer 1">
    <g>
      <polygon class="cls-1" points="114.73 96.6 114.73 80.57 0 80.57 0 96.6 31.09 96.6 45.1 103.01 0 119.53 0 138.7 63.53 114.77 114.73 138.28 114.73 119.4 66.22 97.48 66.22 96.6 114.73 96.6"/>
      <g>
        <polygon class="cls-1" points="58.75 61.68 58.75 74.7 0 74.7 0 65.57 36.09 21.4 .04 21.4 .04 8.38 55.77 8.38 55.77 21.21 22.7 61.68 58.75 61.68"/>
        <polygon class="cls-1" points="114.53 17.51 78.44 61.68 114.49 61.68 114.49 74.7 58.75 74.7 58.75 61.88 91.82 21.4 55.77 21.4 55.77 8.38 114.53 8.38 114.53 17.51"/>
      </g>
    </g>
    <g>
      <path class="cls-1" d="M139.4,138.7v-17.93l63.25-86.7h-63.18V8.52h102.98v17.92l-63.25,86.7h63.18v25.55h-102.98Z"/>
      <path class="cls-1" d="M289.22,140.35c-6.23,0-11.75-1.05-16.56-3.15-4.81-2.1-8.6-5.28-11.38-9.53-2.78-4.26-4.16-9.61-4.16-16.05,0-5.42.95-10,2.86-13.73,1.91-3.73,4.53-6.76,7.88-9.09,3.35-2.33,7.2-4.1,11.57-5.31,4.36-1.21,9.03-2.02,13.98-2.45,5.55-.51,10.02-1.05,13.41-1.62s5.86-1.4,7.41-2.48c1.55-1.08,2.32-2.62,2.32-4.61v-.32c0-3.26-1.12-5.79-3.37-7.56-2.25-1.78-5.28-2.67-9.09-2.67-4.11,0-7.42.89-9.92,2.67-2.5,1.78-4.09,4.24-4.77,7.37l-28.67-1.02c.85-5.93,3.04-11.24,6.58-15.92s8.41-8.37,14.62-11.06c6.21-2.69,13.68-4.04,22.41-4.04,6.23,0,11.97.73,17.23,2.19s9.83,3.58,13.73,6.36c3.9,2.78,6.92,6.18,9.06,10.2,2.14,4.03,3.21,8.62,3.21,13.79v66.36h-29.24v-13.6h-.76c-1.74,3.3-3.95,6.1-6.64,8.39-2.69,2.29-5.85,4-9.47,5.15s-7.7,1.72-12.24,1.72ZM298.82,120.01c3.35,0,6.37-.68,9.06-2.03,2.69-1.36,4.84-3.23,6.45-5.62,1.61-2.39,2.42-5.18,2.42-8.36v-9.28c-.89.47-1.96.89-3.21,1.27-1.25.38-2.62.74-4.1,1.08-1.48.34-3.01.64-4.58.89-1.57.25-3.07.49-4.51.7-2.92.47-5.41,1.19-7.47,2.16-2.06.98-3.62,2.24-4.7,3.78-1.08,1.55-1.62,3.38-1.62,5.5,0,3.22,1.15,5.68,3.46,7.37,2.31,1.7,5.24,2.54,8.8,2.54Z"/>
      <path class="cls-1" d="M366.51,138.7V8.52h31.08v130.18h-31.08ZM394.54,113.08l.13-37.06h4.32l27.46-34.96h35.21l-40.81,50.09h-8.2l-18.12,21.93ZM427.15,138.7l-25.55-40.55,20.47-22.06,41,62.61h-35.91Z"/>
      <path class="cls-1" d="M500.38,140.35c-6.23,0-11.75-1.05-16.56-3.15-4.81-2.1-8.6-5.28-11.38-9.53-2.78-4.26-4.16-9.61-4.16-16.05,0-5.42.95-10,2.86-13.73,1.91-3.73,4.53-6.76,7.88-9.09,3.35-2.33,7.2-4.1,11.57-5.31,4.36-1.21,9.03-2.02,13.98-2.45,5.55-.51,10.02-1.05,13.41-1.62s5.86-1.4,7.41-2.48c1.55-1.08,2.32-2.62,2.32-4.61v-.32c0-3.26-1.12-5.79-3.37-7.56-2.25-1.78-5.28-2.67-9.09-2.67-4.11,0-7.42.89-9.92,2.67-2.5,1.78-4.09,4.24-4.77,7.37l-28.67-1.02c.85-5.93,3.04-11.24,6.58-15.92s8.41-8.37,14.62-11.06c6.21-2.69,13.68-4.04,22.41-4.04,6.23,0,11.97.73,17.23,2.19s9.83,3.58,13.73,6.36c3.9,2.78,6.92,6.18,9.06,10.2,2.14,4.03,3.21,8.62,3.21,13.79v66.36h-29.24v-13.6h-.76c-1.74,3.3-3.95,6.1-6.64,8.39-2.69,2.29-5.85,4-9.47,5.15s-7.7,1.72-12.24,1.72ZM509.98,120.01c3.35,0,6.37-.68,9.06-2.03,2.69-1.36,4.84-3.23,6.45-5.62,1.61-2.39,2.42-5.18,2.42-8.36v-9.28c-.89.47-1.96.89-3.21,1.27-1.25.38-2.62.74-4.1,1.08-1.48.34-3.01.64-4.58.89-1.57.25-3.07.49-4.51.7-2.92.47-5.41,1.19-7.47,2.16-2.06.98-3.62,2.24-4.7,3.78-1.08,1.55-1.62,3.38-1.62,5.5,0,3.22,1.15,5.68,3.46,7.37,2.31,1.7,5.24,2.54,8.8,2.54Z"/>
      <path class="cls-1" d="M577.67,138.7V41.06h30.19v17.8h1.02c1.78-6.44,4.68-11.24,8.71-14.4,4.03-3.16,8.71-4.74,14.05-4.74,1.44,0,2.92.1,4.45.29,1.53.19,2.95.48,4.26.86v27.02c-1.48-.51-3.42-.91-5.82-1.21-2.39-.3-4.52-.45-6.39-.45-3.69,0-7,.82-9.95,2.45-2.95,1.63-5.25,3.9-6.93,6.8-1.67,2.9-2.51,6.3-2.51,10.2v53.01h-31.08Z"/>
      <path class="cls-1" d="M668.7,29.68c-4.41,0-8.18-1.45-11.31-4.35-3.14-2.9-4.7-6.41-4.7-10.52s1.57-7.55,4.7-10.46c3.13-2.9,6.89-4.35,11.25-4.35s8.17,1.45,11.28,4.35c3.12,2.9,4.67,6.41,4.67,10.52s-1.56,7.55-4.67,10.46c-3.11,2.9-6.85,4.35-11.22,4.35ZM653.06,138.7V41.06h31.08v97.64h-31.08Z"/>
      <path class="cls-1" d="M731.37,140.35c-6.23,0-11.75-1.05-16.56-3.15-4.81-2.1-8.6-5.28-11.38-9.53-2.78-4.26-4.16-9.61-4.16-16.05,0-5.42.95-10,2.86-13.73,1.91-3.73,4.53-6.76,7.88-9.09,3.35-2.33,7.2-4.1,11.57-5.31,4.36-1.21,9.03-2.02,13.98-2.45,5.55-.51,10.02-1.05,13.41-1.62s5.86-1.4,7.41-2.48c1.55-1.08,2.32-2.62,2.32-4.61v-.32c0-3.26-1.12-5.79-3.37-7.56-2.25-1.78-5.28-2.67-9.09-2.67-4.11,0-7.42.89-9.92,2.67-2.5,1.78-4.09,4.24-4.77,7.37l-28.67-1.02c.85-5.93,3.04-11.24,6.58-15.92s8.41-8.37,14.62-11.06c6.21-2.69,13.68-4.04,22.41-4.04,6.23,0,11.97.73,17.23,2.19s9.83,3.58,13.73,6.36c3.9,2.78,6.92,6.18,9.06,10.2,2.14,4.03,3.21,8.62,3.21,13.79v66.36h-29.24v-13.6h-.76c-1.74,3.3-3.95,6.1-6.64,8.39-2.69,2.29-5.85,4-9.47,5.15s-7.7,1.72-12.24,1.72ZM740.97,120.01c3.35,0,6.37-.68,9.06-2.03,2.69-1.36,4.84-3.23,6.45-5.62,1.61-2.39,2.42-5.18,2.42-8.36v-9.28c-.89.47-1.96.89-3.21,1.27-1.25.38-2.62.74-4.1,1.08-1.48.34-3.01.64-4.58.89-1.57.25-3.07.49-4.51.7-2.92.47-5.41,1.19-7.47,2.16-2.06.98-3.62,2.24-4.7,3.78-1.08,1.55-1.62,3.38-1.62,5.5,0,3.22,1.15,5.68,3.46,7.37,2.31,1.7,5.24,2.54,8.8,2.54Z"/>
    </g>
  </g>
</svg>